# xmcd CD database file
#
# Track frame offsets:
#	150
#	20880
#	45110
#	67692
#	90535
#	111250
#	126895
#	155382
#	176890
#	209827
#
# Disc length: 3151 seconds
#
# Revision: 3
# Processed by: cddbd v1.5.1PL0 Copyright (c) Steve Scherf et al.
# Submitted via: CDex 1.51
#
DISCID=850c4d0a
DTITLE=Kenny Burrell and Grover Washington Jr. - Togethering
DYEAR=1985
DGENRE=Jazz
TTITLE0=Soulero
TTITLE1=Sails of Your Soul
TTITLE2=Day Dream
TTITLE3=A Beautiful Friendship
TTITLE4=Togethering
TTITLE5=Romance Dance
TTITLE6=Asphalt Canyon Blues
TTITLE7=What am I Here For?
TTITLE8=Summertime
TTITLE9=I'm Glad There is You
EXTD=YEAR: 1985
EXTT0=
EXTT1=
EXTT2=
EXTT3=
EXTT4=
EXTT5=
EXTT6=
EXTT7=
EXTT8=
EXTT9=
PLAYORDER=
